<svg aria-hidden="true" focusable="false" role="presentation" class="icon icon-bpi-be-better-be-stronger" viewBox="0 0 108.6 80.7"><path d="M7.8 73.9c-.1-.1-.2-.2-.4-.3.6-.1.9-.6 1.1-1.3.2-.6.1-.9 0-1.2-.3-.3-.8-.4-1.4-.4H3.9l-1.8 5.9h3.2c1.3 0 2-.2 2.4-1.7.2-.3.3-.7.1-1zm-1.1-1.3c-.1.4-.2.5-.8.5h-1l.3-.9h1.2c.2 0 .3 0 .3.1.1 0 0 .1 0 .3zm-2.1 1.7h1.1c.2 0 .4 0 .5.1v.4c-.1.4-.3.5-.8.5H4.3l.3-1zM12.8 74.3l.3-1.2h-2.4l.2-.9h2.7l.4-1.4H9.6l-1.8 5.9h4.4l.5-1.4H10l.3-1z" fill="#fff"></path><path d="M18.7 73.9c-.1-.1-.2-.2-.3-.2.6-.2.9-.7 1.1-1.3.2-.6.2-.9 0-1.2-.3-.4-.9-.4-1.5-.4h-3.1l-1.8 6h3.2c1.3 0 2-.2 2.5-1.7 0-.5.1-.9-.1-1.2zm-1.1-1.3c-.1.4-.2.5-.7.5h-1l.2-.8h1.2c.2 0 .3 0 .3.1.1-.1 0 .1 0 .2zm-1 1.7c.2 0 .4 0 .4.1v.3c-.1.4-.3.5-.8.5h-1l.3-.9h1.1zM24.5 72.2l.5-1.5h-4.5l-1.8 6h4.5l.4-1.5H21l.2-.9h2.5l.4-1.2h-2.5l.3-.9zM34.7 70.7H25.3l-.5 1.6h1.5L25 76.7h1.7l1.4-4.4h2.8l-1.4 4.4h1.8l1.4-4.4h1.5zM38.1 74.3l.4-1.2H36l.3-.9h2.6l.5-1.5H35l-1.9 6h4.5l.4-1.5h-2.6l.2-.9zM44.8 72.6c.2-.7.2-1.1 0-1.4-.3-.4-.9-.5-1.5-.5h-3.1l-1.8 6h1.8l.5-1.5h1.1c.2 0 .3 0 .3.1.1.1.1.2 0 .5l-.3.9h1.8l.4-1.2c.1-.3.1-.6-.1-.8-.1-.1-.2-.2-.4-.3.8-.3 1-.9 1.3-1.8zm-3.4-.3h1.1c.2 0 .3 0 .4.1v.5c-.2.6-.2.8-.8.8h-1l.3-1.4zM44.3 76.7h1.5l.4-1.5h-1.4z" fill="#00aeef"></path><path d="M52.5 73.9c-.1-.1-.2-.2-.4-.3.6-.2.9-.7 1.1-1.3.2-.6.2-.9 0-1.2-.3-.3-.8-.4-1.4-.4h-3.1l-1.8 5.9H50c1.3 0 2-.2 2.5-1.7.1-.3.2-.7 0-1zm-1-1.3c-.1.4-.2.5-.8.5h-1l.3-.9h1.2c.2 0 .3 0 .3.1v.3zm-2.2 1.7h1.1c.2 0 .4 0 .5.1v.4c-.1.4-.3.5-.8.5H49l.3-1zM55.7 72.2h2.6l.4-1.4h-4.3l-1.8 5.9H57l.4-1.4h-2.7l.3-1h2.5l.4-1.2h-2.5z" fill="#fff"></path><path d="M62 70.7c-1.5 0-2.6.1-3.1 1.8-.2.7-.2 1.1 0 1.4.3.4.9.4 1.7.5h.5c.3 0 .5 0 .5.1v.3c-.1.4-.3.5-1 .5-.3 0-.6 0-.7-.1v-.5h-1.7v.1c-.2.8-.2 1.3 0 1.6.3.5 1.1.5 2 .5 2.6 0 2.9-1 3.2-1.9.2-.7.2-1 0-1.3-.2-.3-.8-.4-1.8-.5l-.6-.3c-.2 0-.4 0-.4-.1v-.3c.1-.2.1-.4 1-.4.3 0 .5 0 .6.1v.5h1.7l.1-.3c.2-.6.2-1 0-1.3-.5-.4-1.3-.4-2-.4zM69.4 70.7h-4.7l-.5 1.6h1.5l-1.4 4.4h1.8l1.3-4.4H69zM74.3 72.6c.2-.7.2-1.1 0-1.4-.3-.4-.9-.5-1.6-.5h-3.1l-1.8 6h1.8l.5-1.5h1.1c.2 0 .3 0 .3.1.1.1.1.2 0 .5l-.3.9H73l.4-1.2c.1-.3.1-.6-.1-.8-.1-.1-.2-.2-.4-.3.9-.3 1.1-.9 1.4-1.8zm-3.3-.3h1.1c.2 0 .3 0 .4.1.1.1 0 .2 0 .4v.1c-.2.6-.2.8-.8.8h-1.1l.4-1.4zM80.1 72.9c.2-.7.2-1.3-.1-1.7-.4-.5-1.3-.6-2.1-.6-1.4 0-2.8.3-3.4 2.2l-.5 1.6c-.2.7-.2 1.3.1 1.7.4.5 1.3.6 2.1.6 1.4 0 2.8-.3 3.4-2.2l.5-1.6zm-4.2 1.5l.4-1.3c.2-.8.5-.9 1.3-.9.4 0 .7 0 .7.1.1.1.1.3 0 .7l-.4 1.3c-.2.8-.5.9-1.3.9-.4 0-.6 0-.7-.1-.1-.1-.1-.3 0-.7zM85.5 70.7l-1.1 4.1-.3-4.1h-2.8l-1.8 6h1.7l1.2-4.1.3 4.1h2.8l1.8-6zM92.6 73.2h-2.9l-.4 1.3h1.1c-.2.6-.4.8-1.1.8-.4 0-.7 0-.8-.2-.1-.1-.1-.4.1-.8l.3-.9c.3-.9.4-1.2 1.4-1.2.3 0 .6 0 .7.1.1.1.1.2 0 .3v.1h1.8v-.1c.2-.7.2-1.2 0-1.5-.3-.5-1.2-.5-2.1-.5-1.8 0-2.9.4-3.5 2.3l-.4 1.5c-.2.8-.2 1.4 0 1.8.3.5 1.1.6 2.2.6 2.2 0 2.8-.4 3.4-2.4l.2-1.2zM97 74.3l.4-1.2h-2.5l.3-.9h2.6l.5-1.5h-4.4l-1.8 6h4.4l.4-1.5h-2.6l.3-.9zM103.7 72.6c.2-.7.2-1.1 0-1.4-.3-.4-.9-.5-1.6-.5H99l-1.8 6H99l.5-1.5h1.1c.2 0 .3 0 .3.1.1.1.1.2 0 .5l-.3.9h1.8l.4-1.2c.1-.3.1-.6-.1-.8-.1-.1-.2-.2-.4-.3.9-.3 1.1-.9 1.4-1.8zm-3.4-.3h1.1c.2 0 .3 0 .4.1.1.1 0 .2 0 .4v.1c-.2.6-.2.8-.8.8h-1.1l.4-1.4zM103.7 75.2l-.5 1.5h1.5l.5-1.5z" fill="#00aeef"></path><path d="M97.8 48.2c-.3-.2-.7-.3-1.1-.3-.4 0-.9.1-1.3.3.1-.6-.1-1.4-.7-1.7-.4-.1-.7-.2-1.1-.2-.3 0-.5 0-.8.1.1-.6-.1-1.3-.7-1.6-.4-.1-.7-.2-1.1-.2h-.6c0-.5-.2-1-.7-1.3-.4-.1-.7-.2-1.1-.2-.3 0-.5 0-.8.1.1-.6-.1-1.2-.7-1.5-.4-.1-.7-.2-1.1-.2-.3 0-.7 0-1 .1.1-.6-.1-1.2-.7-1.5-.4-.1-.7-.2-1.1-.2-.3 0-.7 0-1 .1.1-.6-.1-1.3-.7-1.6-.4-.1-.7-.2-1.1-.2-.9 0-1.9.4-2.7.9-1.2.8-2.1 1.8-3.2 2.7-.2.3-.4.6-.7.9-.6-.4-1.5-1.1-2.9-1.9v-.1c0-.9-.5-1.8-1.3-2.2.1-.1.1-.2 0-.4-.5-1.2-1.1-2.3-1.8-3.4-.2-.5-.5-.9-.7-1.3-.6-.9-1-2.1-1.5-3.1-.1-.3-1.1-1-1.4-1.2-.9-.7-.8-.8-1.8-1.4-.2-.2-.5-.4-.7-.5-1.7-1.4-5.5-3.5-7.6-4.6l.2-.6c-.1-.5-.1-1-.1-1.5 1.2 0 2.3-.6 3.1-1.4 1.6-.9 2.5-2.6 3.2-4.2.5-.9.9-1.9.9-2.9 0-1.1-.3-2.2-.7-3.2-.7-1.7-1.6-3.4-3-4.6-1.3-1.2-3-2-4.8-2h-.6c-1.6 0-3.2.5-4.5 1.4-1.8 1.3-3 3.2-3.7 5.2-.5 2-.2 4.1.4 6.1.3.8.8 1.6 1.2 2.4.1.2.3.3.5.5.4.6.9 1 1.5 1.5.2.2.4.2.7.4.6.3 1.1.7 1.7.9.5.1 1 .4 1.6.4.1.3.2.5.2 1s-.1.9-.3 1.2l-.1.1c-1.9 1.2-3.8 2.4-5.4 3.9-.2.2-.4.4-.6.5-1 .6-1.9 1.3-2.7 2-.2.2-.5.5-.6.8-.4 1-.7 2.1-1.3 3-.3.4-.5.9-.7 1.4-.7 1.1-1.2 2.3-1.7 3.5-1.2.1-2.2 1.2-2.2 2.4 0 .2 0 .5.1.7-1 .5-2 1.1-3.1 1.7-.3-.5-.7-.9-1-1.3-1-.9-2-2-3.2-2.7-.8-.5-1.7-.9-2.7-.9-.4 0-.7.1-1.1.2-.5.3-.7 1-.7 1.6-.3-.1-.6-.1-1-.1s-.7.1-1.1.2c-.5.3-.7 1-.7 1.5-.3-.1-.6-.1-1-.1s-.7.1-1.1.2c-.5.3-.7.9-.7 1.5-.3 0-.5-.1-.8-.1-.4 0-.7.1-1.1.2-.5.3-.7.8-.7 1.3h-.6c-.4 0-.7.1-1.1.2-.6.3-.7 1-.6 1.6-.3-.1-.5-.1-.8-.1-.4 0-.7.1-1.1.2-.6.3-.8 1.1-.6 1.7-.4-.1-.9-.3-1.3-.3s-.8.1-1.1.3c-.6.4-.7 1.2-.7 1.9.1.9.2 1.8.6 2.6.9 2 1.9 3.8 3 5.7 1 1.7 2.1 3.3 3.4 4.8.7.8 1.4 1.5 2.3 2 .6.4 1.3.6 2 .6.3 0 .6-.1.8-.2.7-.2 1.2-.9 1.3-1.6h.4c.7 0 1.4-.5 1.8-1.1.2-.2.3-.5.4-.7v.1h.4c.7 0 1.4-.5 1.8-1.1.1-.1.2-.2.2-.4h.3c.7 0 1.4-.5 1.8-1.1.2-.2.3-.4.4-.7v.1h.4c.7 0 1.4-.5 1.8-1.1.2-.3.4-.6.4-1l.2.5h.3c.7 0 1.4-.5 1.8-1.1.3-.3.4-.7.4-1l.2.5h.3c.7 0 1.4-.5 1.8-1.1.6-.7.5-1.6.4-2.4-.4-2.6-1.6-4.9-2.8-7.2l-.6-1c1-.6 2.1-1.2 3.1-1.7.4.4 1 .6 1.6.6 1.2 0 2.3-.9 2.4-2.1l.1.1c.1.1.3.2.4.2.2 0 .5-.1.7-.3.2-.2.3-.5.2-.8 3.8-1.4 7.2-2 10.3-2.2.1.9.3 2.1.2 2.6v1.8c-3 .7-8.3 4.4-9.1 5.7-.6 1 .7 7.1 1.3 10.1-.2 0-.4 0-.6.1-2.2.4-4.3 1.2-6.1 2.5-.3.2-.4.6-.4 1h12.2c0-.3-.1-.6 0-.8 0 0-.8-2-1.6-2.3-.5-.3-1-.4-1.6-.5-1.2-2.5-1.4-6.8-.9-9 1.3-2 3.9-4.2 7.4-4.5.4 0 .7-.1.9-.2.2.1.6.2.9.2 3.6.2 6.2 2.5 7.4 4.5.5 2.2.3 6.4-.9 8.9-.4.1-.8.2-1.2.4-.8.3-1.7 2.4-1.7 2.4.1.3 0 .6 0 .9h12.8c0-.4-.1-.8-.4-1-1.9-1.4-4.1-2.3-6.3-2.7-.4 0-.7-.1-1.1-.1.7-3 1.9-8.9 1.3-9.9-.8-1.3-6.3-5.2-9.3-5.8-.2-1.5-.3-3.2-.6-4.4 2.8 0 5.3.4 7.3 1 1 .3 2 .6 2.9.9l-.4.2c-.3.2-.3.7 0 1.1.2.2.4.3.7.3.2 0 .3 0 .4-.2l.1-.1c.2 1.2 1.2 2.1 2.4 2.1.8 0 1.6-.4 2-1 1.2.7 2.1 1.3 2.6 1.7l-.9 1.5c-1.2 2.3-2.4 4.6-2.8 7.2-.1.8-.2 1.7.4 2.4.3.6 1.1 1.1 1.8 1.1h.3l.2-.5c0 .4.2.7.4 1 .3.6 1.1 1.1 1.8 1.1h.3l.2-.5c.1.4.2.7.4 1 .3.6 1.1 1.1 1.8 1.1h.3l.1-.1c.1.2.2.5.4.7.3.6 1.1 1.1 1.8 1.1h.3c.1.1.1.2.2.4.3.6 1.1 1.1 1.8 1.1h.3v-.1c.1.3.2.5.4.7.3.6 1.1 1.1 1.8 1.1h.3c.1.7.6 1.4 1.3 1.6.3.1.6.2.8.2.7 0 1.4-.3 1.9-.6.8-.5 1.6-1.2 2.2-2 1.3-1.5 2.4-3.1 3.4-4.8 1.1-1.9 2.1-3.7 3-5.7.4-.8.6-1.7.6-2.6.3-1 .1-1.8-.4-2.2zM13.9 58.3c-.4-.5-.9-1.1-.8-1.8.1-.2.2-.2.3-.2.2 0 .4.1.5.2.8.4 1.5 1.3 1.2 2.2-.1.1-.2.1-.4.1-.3 0-.6-.3-.8-.5zm6.5 5.4c0 .3-.2.5-.5.5-.5-.1-1-.4-1.4-.8-1.4-1.2-2.5-2.6-3.6-4 .3 0 .6-.1.9-.3.3-.3.3-.8.2-1.2-.3-1-1-2.1-2.1-2.4-.1 0-.3-.1-.4-.1-.4 0-.8.2-1 .6-.9-1.6-1.8-3.1-2.3-4.9-.1-.6-.3-1.2-.1-1.8.1-.2.2-.5.5-.5h.1c.5 0 .9.2 1.3.5.7.5 1.4 1 2 1.7 1.1 1 2 2.2 2.9 3.4 1.4 2.1 2.8 4.3 3.5 6.8-.1.9.1 1.7 0 2.5zm2.3-1.7l-.3.3c-.1 0-.3-.1-.5-.1-.1-.6-.3-1.2-.5-1.7-1-3.4-2.8-6.5-5.2-9.1-.9-1-1.9-1.8-3-2.5-.1-.3-.4-.7-.1-1 .2-.2.5-.3.9-.3.2 0 .4 0 .6.1.6.2 1.1.4 1.5.8l1.3 1.5c.2.3.5.6.7.8l2.7 4.1c.6 1.1 1 2.2 1.4 3.4.2.5.4 1.1.5 1.7.2.6.1 1.3 0 2zm2.5-1.7l-.3.3c-.1 0-.3-.1-.5-.1 0-.2-.1-.3-.1-.5-.5-2.4-1.6-4.6-2.7-6.7l-1-1.6c-.4-.7-.9-1.2-1.4-1.9-1-1-2-2-3.2-2.8-.1-.1-.3-.2-.4-.3-.1-.2-.2-.5 0-.7.2-.2.5-.3.9-.3.2 0 .4 0 .6.1.2 0 .4.1.5.2l2.6 2.8 3.9 6c.2.5.4 1.1.5 1.6.2.5.4 1.1.5 1.7.3.7.3 1.5.1 2.2zm2.4-1.5l-.3.3c-.1 0-.2 0-.3-.1v-.3c-.4-2.6-1.6-4.9-2.8-7.2l-1-1.6c-.4-.7-.9-1.2-1.4-1.9-1-1-2-2-3.2-2.8-.2-.2-.5-.3-.7-.4 0-.1 0-.2.1-.3.2-.2.5-.3.9-.3.2 0 .4 0 .6.1.4.1.9.3 1.2.6l2.1 2.3 3.1 4.8c.5 1 .9 2 1.2 3 .2.5.4 1.1.5 1.7.2.7.1 1.4 0 2.1zm2.5-1.6l-.3.3c-.2 0-.3-.1-.5-.1-.4-2.6-1.6-4.9-2.8-7.2l-1-1.6c-.4-.7-.9-1.2-1.4-1.9-1-1-2-2-3.2-2.8-.2-.1-.3-.2-.5-.3-.1-.2-.1-.4 0-.6.2-.2.5-.3.9-.3.2 0 .4 0 .6.1.7.2 1.4.6 1.9 1.1l.3.4.2.2 1.5 1.8c.2.2.3.4.5.6l.8 1.2c.2.3.4.7.6 1 .8 1.3 1.4 2.7 1.8 4.2.2.5.4 1.1.5 1.7.3.8.2 1.5.1 2.2zm2.8-1.6l-.3.3c-.2 0-.3-.1-.5-.1-.1-.6-.3-1.2-.5-1.7-.7-2.2-1.6-4.2-2.9-6.1l-.6-1c-.4-.7-.9-1.2-1.4-1.9-1-1-2-2-3.2-2.8-.1 0-.2-.1-.2-.2-.1-.2-.2-.5 0-.7.2-.2.5-.3.9-.3.2 0 .4 0 .6.1 1 .3 1.8.9 2.4 1.7l1.5 1.8c.7.9 1.3 1.9 1.9 2.9.8 1.3 1.4 2.7 1.8 4.2.2.5.4 1.1.5 1.7.1.7.1 1.4 0 2.1zm2.2-5.5c.2.6.4 1.1.5 1.7.2.7.1 1.5 0 2.2l-.3.3c-.2 0-.3-.1-.5-.1-.1-.6-.3-1.2-.5-1.7-.7-2.4-1.8-4.7-3.3-6.7l-.2-.3c-.4-.7-.9-1.2-1.4-1.9-1-1-2-2-3.2-2.8-.1 0-.1-.1-.2-.1-.1-.3-.2-.5 0-.8.2-.2.5-.3.9-.3.2 0 .4 0 .6.1 1 .3 1.8.9 2.4 1.7l1.5 1.8c.7.9 1.3 1.9 1.9 2.9.8 1.1 1.4 2.5 1.8 4zM41 39.2c-.2-.1-.4-.2-.5-.2l-.1-.1c.6-1.2 1.3-2.5 2-3.7.6-1.1 1.3-2.2 1.8-3.4.1-.3.3-.6.4-.9 1.4-1 2.7-2.2 4-3.3.8-.5 1.5-1.1 2.3-1.6.4 1.5.6 2.8 1 4.5.3 1.3.6 2.6.7 3.9.1 1.8 0 .8.1 2-3.6.4-7.5 1.2-11.7 2.8zm11.5-21.1h-1-.2c-1.2-.3-2.3-.8-3.2-1.5-.6-.6-1.2-1.3-1.5-2.1-.4-1.3-.8-2.6-.5-3.9.2-1.4.8-2.7 1.8-3.8 1.1-1.2 2.6-2.1 4.2-2.3h.6c.8 0 1.6.2 2.3.6 1.3.7 2.5 1.8 3.3 3.1.3.8.6 1.7.7 2.6.2 1.5-.2 3-.9 4.4-.2.5-.5 1-.9 1.4-1 .8-2.3 1.2-3.5 1.5h-1.2zm14.8 20.7c-1.2-.5-2.6-1-4.1-1.3-2.2-.6-4.9-1-8-1-.2-2.1-.2-2.2-.3-4.6 0-2.1.2-4.3.4-6.4 1.6.7 3.1 1.6 4.4 2.4 1.4 1.1 2.8 2.2 4.2 3.2.2.3.3.5.5.8.5 1.1 1.2 2.2 1.9 3.3.7 1 1.3 2.1 1.9 3.2-.5.1-.7.3-.9.4zm5.4 13.6c-.2.6-.4 1.1-.5 1.7-.2 0-.3.1-.5.1l-.3-.3c-.1-.7-.2-1.5 0-2.2.1-.6.3-1.1.5-1.7.4-1.5 1-2.9 1.8-4.2.6-1 1.2-2 1.9-2.9l1.5-1.8c.6-.8 1.5-1.5 2.4-1.7.2 0 .4-.1.6-.1.3 0 .6.1.9.3.2.3.1.5 0 .8-.1 0-.2.1-.2.1-1.2.8-2.1 1.8-3.2 2.8-.4.7-.9 1.2-1.4 1.9l-.2.5c-1.4 2-2.6 4.3-3.3 6.7zm2.7 1.7c-.2.6-.4 1.1-.5 1.7-.2 0-.3.1-.5.1l-.3-.3c-.1-.7-.2-1.5 0-2.2.1-.6.3-1.1.5-1.7.4-1.5 1-2.9 1.8-4.2.6-1 1.2-2 1.9-2.9l1.5-1.8c.6-.8 1.5-1.4 2.4-1.7.2 0 .4-.1.6-.1.3 0 .7.1.9.3.2.2.1.5 0 .7-.1 0-.2.1-.2.2-1.2.8-2.1 1.8-3.2 2.8-.4.7-.9 1.2-1.4 1.9l-.7 1c-1.1 2-2.1 4-2.8 6.2zm2.3 3.2c0 .1 0 .1 0 0 0 .1 0 .1 0 0-.2.1-.3.2-.5.2l-.3-.3c-.1-.7-.2-1.5 0-2.2.1-.6.3-1.1.5-1.7.4-1.5 1-2.9 1.8-4.2.2-.4.4-.7.7-1.1l.8-1.2c.2-.2.3-.4.5-.6l1.5-1.8c.1-.1.1-.2.2-.2l.3-.3c.5-.5 1.2-.9 1.9-1.2.2 0 .4-.1.6-.1.3 0 .6.1.9.3.1.2.1.4 0 .6-.2.1-.3.2-.5.3-1.2.8-2.1 1.8-3.2 2.8-.4.7-.9 1.2-1.4 1.9l-1 1.6c-1.3 2.3-2.4 4.7-2.8 7.2zm2.3 1.5v.3c-.1 0-.2 0-.3.1l-.3-.3c-.1-.7-.2-1.5 0-2.2.1-.6.3-1.1.5-1.7.3-1 .7-2 1.2-3l3.2-4.8 2.1-2.3c.4-.3.8-.5 1.2-.6.2 0 .4-.1.6-.1.3 0 .6.1.9.3.1.1.1.2.1.3-.2.1-.5.3-.7.4-1.2.8-2.1 1.8-3.2 2.8-.4.7-.9 1.2-1.4 1.9l-1 1.6c-1.3 2.4-2.5 4.7-2.9 7.3zm2.7 1.2c0 .2-.1.3-.1.5-.2 0-.3.1-.5.1l-.3-.3c-.1-.7-.2-1.5 0-2.2.1-.6.3-1.1.5-1.7.2-.5.3-1.1.6-1.6l3.9-6 2.6-2.8c.2-.1.4-.2.6-.2.2 0 .4-.1.6-.1.3 0 .6.1.9.3.2.2.1.5 0 .7-.2.1-.3.2-.4.3-1.2.8-2.1 1.8-3.2 2.8-.4.7-.9 1.2-1.4 1.9l-1 1.6c-1.3 2.2-2.4 4.4-2.8 6.7zm2.9.5c-.2.6-.4 1.1-.5 1.7-.2 0-.3.1-.5.1l-.3-.3c-.1-.7-.2-1.5 0-2.2.1-.6.3-1.1.5-1.7.3-1.2.8-2.3 1.4-3.4l2.7-4.1c.2-.3.5-.6.7-.8l1.3-1.5c.4-.3 1-.6 1.5-.8.2 0 .4-.1.6-.1.3 0 .6.1.9.3.2.3 0 .7-.1 1-1.1.7-2.1 1.5-3 2.5-2.4 2.8-4.2 5.9-5.2 9.3zm7.5-2.2c-.2.2-.5.5-.8.5-.1 0-.2 0-.4-.1-.3-.9.4-1.8 1.2-2.2.1-.1.3-.2.5-.2s.3.1.3.2c0 .7-.5 1.3-.8 1.8zm3.7-7.1c-.5 1.8-1.4 3.3-2.3 4.9-.2-.4-.6-.6-1-.6-.1 0-.3 0-.4.1-1.1.3-1.8 1.3-2.1 2.4-.2.4-.1.9.2 1.2.3.2.6.3.9.3-1.1 1.4-2.2 2.8-3.6 4-.4.3-.9.7-1.4.8-.3 0-.5-.2-.5-.5-.1-.8.1-1.6.3-2.4.7-2.5 2-4.7 3.5-6.8.8-1.2 1.8-2.4 2.8-3.4.6-.6 1.2-1.2 2-1.7.4-.2.8-.5 1.3-.5h.1c.2 0 .4.3.5.5 0 .6-.2 1.2-.3 1.7z" fill="#fff"></path></svg>