<svg id="_x33_0" enable-background="new 0 0 62 62" height="512" viewBox="0 0 62 62" width="512" xmlns="http://www.w3.org/2000/svg"><g><g><g><path d="m11 46v10c0 .55-.45 1-1 1h-9v-12h9c.55 0 1 .45 1 1z" fill="#5cd6b3"/></g><g><path d="m27 47c0 1.1.9 2 2 2-.55 0-1.05.22-1.41.59-.37.36-.59.86-.59 1.41 0 1.1.9 2 2 2-.55 0-1.05.22-1.41.59-.37.36-.59.86-.59 1.41 0 1.1.9 2 2 2v2c0 1.1-.9 2-2 2h-2c-1.1 0-2-.9-2-2v-3-8.82c1.38-1.17 1.73-1.65 2-2.18h3c.2 0 .4-.02.59-.06l.01.1c-.39.08-.74.28-1.01.55-.37.36-.59.86-.59 1.41z" fill="#969faa"/></g><g><path d="m26 37c1.02 0 2.03-.09 3-.25v4.25h-6v-4.25-.01c.97.17 1.98.26 3 .26z" fill="#969faa"/></g><g><path d="m31 53c1.1 0 2 .9 2 2 0 .55-.22 1.05-.59 1.41-.36.37-.86.59-1.41.59h-2c-1.1 0-2-.9-2-2 0-.55.22-1.05.59-1.41.36-.37.86-.59 1.41-.59z" fill="#f0d0b4"/></g><g><path d="m31 45c1.1 0 2 .9 2 2 0 .55-.22 1.05-.59 1.41-.36.37-.86.59-1.41.59h-2c-1.1 0-2-.9-2-2 0-.55.22-1.05.59-1.41.27-.27.62-.47 1.01-.55.13-.03.26-.04.4-.04z" fill="#f0d0b4"/></g><g><path d="m31 49c1.1 0 2 .9 2 2 0 .55-.22 1.05-.59 1.41-.36.37-.86.59-1.41.59h-2c-1.1 0-2-.9-2-2 0-.55.22-1.05.59-1.41.36-.37.86-.59 1.41-.59z" fill="#f0d0b4"/></g><g><path d="m23 56v3h-4.76c-2.71 0-5.32-1.08-7.24-3v-10c1.86-3.1 5.21-5 8.83-5h3.17 6 1c.55 0 1 .45 1 1 0 .83-.34 1.58-.88 2.12-.41.41-.94.71-1.53.82-.19.04-.39.06-.59.06h-3c-.27.53-.62 1.01-2 2.18z" fill="#f0d0b4"/></g><g><circle cx="57" cy="55" fill="#ff826e" r="2"/></g><g><circle cx="49" cy="55" fill="#ff826e" r="2"/></g><g><circle cx="41" cy="55" fill="#ff826e" r="2"/></g><g><path d="m51 40v8c0 .55-.45 1-1 1h-2c-.55 0-1-.45-1-1v-8c0-.55.45-1 1-1h2c.55 0 1 .45 1 1z" fill="#ff826e"/></g><g><path d="m59 40v8c0 .55-.45 1-1 1h-2c-.55 0-1-.45-1-1v-8c0-.55.45-1 1-1h2c.55 0 1 .45 1 1z" fill="#ff826e"/></g><g><path d="m43 40v8c0 .55-.45 1-1 1h-2c-.55 0-1-.45-1-1v-8c0-.55.45-1 1-1h2c.55 0 1 .45 1 1z" fill="#ff826e"/></g><g><circle cx="26" cy="19" fill="#fcd770" r="18"/></g><g><circle cx="26" cy="19" fill="#69d6f4" r="14"/></g><g><path d="m37.49 27h-13.49c-1.1 0-2-.9-2-2v-14c0-1.1.9-2 2-2h11.8 5.13 18.07c1.1 0 2 .9 2 2v14c0 1.1-.9 2-2 2h-14l-1.68 5.05c-.19.57-.72.95-1.32.95s-1.13-.38-1.32-.95l-.61-1.83-1.07-3.22z" fill="#e6e9ed"/></g></g><g><path d="m59 8h-17.517c-3.568-5.015-9.317-8-15.483-8-10.477 0-19 8.523-19 19 0 9.104 6.439 16.725 15 18.568v2.432h-2.169c-3.449 0-6.719 1.606-8.844 4.271-.293-.168-.627-.271-.987-.271h-10v14h10c.474 0 .904-.172 1.247-.449 1.982 1.584 4.421 2.449 6.996 2.449h3.942c.414 1.161 1.514 2 2.816 2h2c1.654 0 3-1.346 3-3v-1h1c1.654 0 3-1.346 3-3 0-.771-.301-1.468-.78-2 .48-.532.78-1.229.78-2s-.301-1.468-.78-2c.48-.532.78-1.229.78-2 0-1.51-1.125-2.751-2.579-2.958.358-.599.578-1.293.578-2.042 0-1.103-.897-2-2-2v-2.426c3.677-.785 7.034-2.647 9.674-5.39l.061.184c.326.977 1.236 1.632 2.265 1.632s1.939-.655 2.265-1.632l1.456-4.368h13.279c1.654 0 3-1.346 3-3v-14c0-1.654-1.346-3-3-3zm-49 48h-8v-10h8zm2-.441v-9.25c1.697-2.659 4.668-4.309 7.831-4.309h10.169c0 1.103-.897 2-2 2h-3.618l-.276.553c-.525 1.051-1.428 1.834-2.543 2.206l-.879.293.633 1.896.683-.228v4.51c-1.057-.971-2.314-1.722-3.684-2.179l-.633 1.896c1.725.576 3.23 1.726 4.238 3.237l.079.119v1.697h-3.757c-2.336 0-4.534-.87-6.243-2.441zm20-4.559c0 .552-.449 1-1 1h-2c-.551 0-1-.448-1-1s.449-1 1-1h2c.551 0 1 .448 1 1zm-5 9h-2c-.551 0-1-.448-1-1v-11.298c.623-.465 1.164-1.033 1.583-1.702h.601c-.112.314-.184.648-.184 1 0 .771.301 1.468.78 2-.48.532-.78 1.229-.78 2s.301 1.468.78 2c-.48.532-.78 1.229-.78 2 0 1.302.839 2.402 2 2.816v1.184c0 .552-.449 1-1 1zm4-4h-2c-.551 0-1-.448-1-1s.449-1 1-1h2c.551 0 1 .448 1 1s-.449 1-1 1zm1-9c0 .552-.449 1-1 1h-2c-.551 0-1-.448-1-1s.449-1 1-1h2c.551 0 1 .448 1 1zm-4-7h-4v-2.107c.658.069 1.324.107 2 .107.673 0 1.34-.039 2-.108zm-2-4c-9.374 0-17-7.626-17-17s7.626-17 17-17c5.025 0 9.741 2.215 12.956 6h-2.779c-2.781-2.575-6.372-4-10.177-4-8.271 0-15 6.729-15 15s6.729 15 15 15c4.717 0 9.142-2.243 11.972-6h.307l.663 1.99c-3.24 3.816-7.918 6.01-12.942 6.01zm-2-8h11.353c-2.433 2.524-5.796 4-9.353 4-7.168 0-13-5.832-13-13s5.832-13 13-13c2.484 0 4.864.703 6.919 2h-8.919c-1.654 0-3 1.346-3 3v14c0 1.654 1.346 3 3 3zm36-3c0 .552-.449 1-1 1h-14.721l-1.912 5.735c-.105.316-.63.316-.735 0l-1.911-5.735h-15.721c-.551 0-1-.448-1-1v-14c0-.552.449-1 1-1h35c.551 0 1 .448 1 1z"/><path d="m43 12h-4c-1.103 0-2 .897-2 2v8c0 1.103.897 2 2 2h4c1.103 0 2-.897 2-2v-8c0-1.103-.897-2-2-2zm-4 10v-8h4l.001 8z"/><path d="m33 14h-2v5h-3.557l2.494-6.648-1.874-.704-3.506 9.352h6.443v3h2v-3h2v-2h-2z"/><path d="m56 14h-2v5h-3.557l2.494-6.648-1.874-.704-3.506 9.352h6.443v3h2v-3h2v-2h-2z"/><path d="m41 52c-1.654 0-3 1.346-3 3s1.346 3 3 3 3-1.346 3-3-1.346-3-3-3zm0 4c-.551 0-1-.448-1-1s.449-1 1-1 1 .448 1 1-.449 1-1 1z"/><path d="m42 38h-2c-1.103 0-2 .897-2 2v8c0 1.103.897 2 2 2h2c1.103 0 2-.897 2-2v-8c0-1.103-.897-2-2-2zm-2 10v-8h2l.001 8z"/><path d="m49 52c-1.654 0-3 1.346-3 3s1.346 3 3 3 3-1.346 3-3-1.346-3-3-3zm0 4c-.551 0-1-.448-1-1s.449-1 1-1 1 .448 1 1-.449 1-1 1z"/><path d="m50 38h-2c-1.103 0-2 .897-2 2v8c0 1.103.897 2 2 2h2c1.103 0 2-.897 2-2v-8c0-1.103-.897-2-2-2zm-2 10v-8h2l.001 8z"/><path d="m57 52c-1.654 0-3 1.346-3 3s1.346 3 3 3 3-1.346 3-3-1.346-3-3-3zm0 4c-.551 0-1-.448-1-1s.449-1 1-1 1 .448 1 1-.449 1-1 1z"/><path d="m58 38h-2c-1.103 0-2 .897-2 2v8c0 1.103.897 2 2 2h2c1.103 0 2-.897 2-2v-8c0-1.103-.897-2-2-2zm-2 10v-8h2l.001 8z"/></g></g></svg>